<mxfile host="app.diagrams.net" modified="2020-11-17T06:17:37.533Z" agent="5.0 (Windows NT 10.0; Win64; x64) AppleWebKit/537.36 (KHTML, like Gecko) Chrome/86.0.4240.198 Safari/537.36" etag="E_cnHg4KXIK4WSf-sasn" version="13.9.9" type="github">
  <diagram id="e2sNTHa5fYPghkKfQjUg" name="Page-1">
    <mxGraphModel dx="1038" dy="548" grid="1" gridSize="10" guides="1" tooltips="1" connect="1" arrows="1" fold="1" page="1" pageScale="1" pageWidth="827" pageHeight="1169" math="0" shadow="0">
      <root>
        <mxCell id="0" />
        <mxCell id="1" parent="0" />
        <mxCell id="QqXJ67VXmuxTV_qWBJPn-1" style="edgeStyle=orthogonalEdgeStyle;rounded=1;orthogonalLoop=1;jettySize=auto;html=1;entryX=0.5;entryY=0;entryDx=0;entryDy=0;" edge="1" parent="1" source="QqXJ67VXmuxTV_qWBJPn-3" target="QqXJ67VXmuxTV_qWBJPn-4">
          <mxGeometry relative="1" as="geometry" />
        </mxCell>
        <mxCell id="QqXJ67VXmuxTV_qWBJPn-2" style="edgeStyle=orthogonalEdgeStyle;rounded=1;orthogonalLoop=1;jettySize=auto;html=1;entryX=0.633;entryY=-0.017;entryDx=0;entryDy=0;entryPerimeter=0;" edge="1" parent="1" source="QqXJ67VXmuxTV_qWBJPn-3" target="QqXJ67VXmuxTV_qWBJPn-5">
          <mxGeometry relative="1" as="geometry" />
        </mxCell>
        <mxCell id="QqXJ67VXmuxTV_qWBJPn-3" value="&lt;font style=&quot;font-size: 15px&quot;&gt;Pay&lt;br&gt;&lt;br&gt;unifiedorder()&lt;/font&gt;" style="rounded=0;whiteSpace=wrap;html=1;fillColor=#d5e8d4;strokeColor=#82b366;" vertex="1" parent="1">
          <mxGeometry x="155" y="160" width="120" height="60" as="geometry" />
        </mxCell>
        <mxCell id="QqXJ67VXmuxTV_qWBJPn-14" style="edgeStyle=orthogonalEdgeStyle;rounded=1;orthogonalLoop=1;jettySize=auto;html=1;entryX=0.5;entryY=1;entryDx=0;entryDy=0;" edge="1" parent="1" source="QqXJ67VXmuxTV_qWBJPn-4" target="QqXJ67VXmuxTV_qWBJPn-9">
          <mxGeometry relative="1" as="geometry">
            <Array as="points">
              <mxPoint x="105" y="440" />
              <mxPoint x="515" y="440" />
            </Array>
          </mxGeometry>
        </mxCell>
        <mxCell id="QqXJ67VXmuxTV_qWBJPn-4" value="&lt;font style=&quot;font-size: 18px&quot;&gt;微信支付&lt;br&gt;&lt;span style=&quot;font-size: 15px&quot;&gt;unifiedorder()&lt;/span&gt;&lt;br&gt;&lt;/font&gt;" style="rounded=0;whiteSpace=wrap;html=1;fillColor=#dae8fc;strokeColor=#6c8ebf;" vertex="1" parent="1">
          <mxGeometry x="45" y="340" width="120" height="60" as="geometry" />
        </mxCell>
        <mxCell id="QqXJ67VXmuxTV_qWBJPn-16" style="edgeStyle=orthogonalEdgeStyle;rounded=1;orthogonalLoop=1;jettySize=auto;html=1;entryX=0.5;entryY=1;entryDx=0;entryDy=0;" edge="1" parent="1" source="QqXJ67VXmuxTV_qWBJPn-5" target="QqXJ67VXmuxTV_qWBJPn-8">
          <mxGeometry relative="1" as="geometry">
            <Array as="points">
              <mxPoint x="309" y="470" />
              <mxPoint x="722" y="470" />
            </Array>
          </mxGeometry>
        </mxCell>
        <mxCell id="QqXJ67VXmuxTV_qWBJPn-5" value="&lt;font style=&quot;font-size: 18px&quot;&gt;支付宝支付&lt;br&gt;&lt;span style=&quot;font-size: 15px&quot;&gt;unifiedorder()&lt;/span&gt;&lt;br&gt;&lt;/font&gt;" style="rounded=0;whiteSpace=wrap;html=1;fillColor=#dae8fc;strokeColor=#6c8ebf;" vertex="1" parent="1">
          <mxGeometry x="249" y="340" width="120" height="60" as="geometry" />
        </mxCell>
        <mxCell id="QqXJ67VXmuxTV_qWBJPn-6" value="&lt;font style=&quot;font-size: 18px&quot;&gt;&lt;b&gt;工厂方法模式：绿色为接口，蓝色为实体类&lt;/b&gt;&lt;/font&gt;" style="text;html=1;align=center;verticalAlign=middle;resizable=0;points=[];autosize=1;" vertex="1" parent="1">
          <mxGeometry x="80" y="70" width="360" height="20" as="geometry" />
        </mxCell>
        <mxCell id="QqXJ67VXmuxTV_qWBJPn-10" style="edgeStyle=orthogonalEdgeStyle;rounded=1;orthogonalLoop=1;jettySize=auto;html=1;entryX=0.5;entryY=0;entryDx=0;entryDy=0;" edge="1" parent="1" source="QqXJ67VXmuxTV_qWBJPn-7" target="QqXJ67VXmuxTV_qWBJPn-9">
          <mxGeometry relative="1" as="geometry" />
        </mxCell>
        <mxCell id="QqXJ67VXmuxTV_qWBJPn-11" style="edgeStyle=orthogonalEdgeStyle;rounded=1;orthogonalLoop=1;jettySize=auto;html=1;exitX=0.5;exitY=1;exitDx=0;exitDy=0;" edge="1" parent="1" source="QqXJ67VXmuxTV_qWBJPn-7" target="QqXJ67VXmuxTV_qWBJPn-8">
          <mxGeometry relative="1" as="geometry" />
        </mxCell>
        <mxCell id="QqXJ67VXmuxTV_qWBJPn-7" value="抽象工厂&lt;br&gt;PayFactory" style="rounded=0;whiteSpace=wrap;html=1;fillColor=#d5e8d4;strokeColor=#82b366;" vertex="1" parent="1">
          <mxGeometry x="555" y="160" width="120" height="60" as="geometry" />
        </mxCell>
        <mxCell id="QqXJ67VXmuxTV_qWBJPn-8" value="&lt;font style=&quot;font-size: 18px&quot;&gt;支付宝支付&lt;br&gt;&lt;span style=&quot;font-size: 15px&quot;&gt;AliPayFactory&lt;br&gt;&lt;/span&gt;pay getPay()&lt;br&gt;&lt;/font&gt;" style="rounded=0;whiteSpace=wrap;html=1;fillColor=#dae8fc;strokeColor=#6c8ebf;" vertex="1" parent="1">
          <mxGeometry x="662" y="340" width="120" height="60" as="geometry" />
        </mxCell>
        <mxCell id="QqXJ67VXmuxTV_qWBJPn-9" value="&lt;font&gt;&lt;span style=&quot;font-size: 18px&quot;&gt;微信支付&lt;/span&gt;&lt;br&gt;&lt;span style=&quot;font-size: 15px&quot;&gt;AliPayFactory&lt;br&gt;&lt;/span&gt;Pay&amp;nbsp; getPay()&lt;br&gt;&lt;/font&gt;" style="rounded=0;whiteSpace=wrap;html=1;fillColor=#dae8fc;strokeColor=#6c8ebf;" vertex="1" parent="1">
          <mxGeometry x="455" y="340" width="120" height="60" as="geometry" />
        </mxCell>
      </root>
    </mxGraphModel>
  </diagram>
</mxfile>
